<svg width="1002" height="932" viewBox="0 0 1002 932" fill="none" xmlns="http://www.w3.org/2000/svg">
<path d="M837.901 376.252C852.543 381.575 866.845 386.846 880.432 393.819C931.092 419.82 969.848 457.964 996.784 508.096C1002.99 519.643 1002.58 523.724 993.961 533.196C951.499 579.894 899.138 608.735 836.932 619.346C830.351 620.469 828.633 622.169 830.283 629.023C833.463 642.253 834.449 655.857 834.432 669.496C834.415 682.08 832.171 685.396 820.607 689.715C807.564 694.596 794.197 698.32 780.44 700.191C774.25 701.041 772.821 702.657 774.182 709.221C789.657 784.759 776.341 854.839 733.776 919.358C727.637 928.66 720.359 931.823 709.526 930.446C643.205 921.926 586.899 893.85 541.273 844.874C537.005 840.283 534.42 839.177 529.183 843.65C519.932 851.574 509.218 857.492 498.522 863.359C490.954 867.508 484.22 867.1 477.095 862.271C457.963 849.244 440.975 833.923 427.013 815.489C423.306 810.591 421.282 810.71 416.776 814.502C368.021 855.554 311.631 876.845 247.962 879.038C236.619 879.429 232.249 876.76 227.946 865.944C204.104 806.152 201.349 745.341 220.073 683.797C222.47 675.941 220.668 673.815 213.372 672.115C199.836 668.969 186.946 663.765 174.481 657.592C164.532 652.677 162.016 648.273 163.189 637.304C165.808 612.901 171.743 589.366 182.541 567.258C185.449 561.323 184.888 559.385 177.984 558.126C107.071 545.134 50.2381 509.303 7.07797 451.689C-0.965655 440.958 -0.982647 436.928 6.77189 425.755C45.1534 370.487 96.8843 334.129 162.016 317.226C170.178 315.1 172.712 312.906 169.209 304.488C164.771 293.775 162.679 282.245 161.114 270.715C159.346 257.621 161.063 254.22 172.508 248.217C200.516 233.541 230.327 225.243 261.923 224.001C269.083 223.729 270.171 222.165 268.011 215.294C246.686 147.459 251.414 81.2396 281.378 16.8055C289.013 0.378139 292.601 -1.37343 309.726 3.15005C371.66 19.4584 422.099 53.0273 460.395 104.435C464.391 109.792 466.262 111.067 470.854 104.911C483.132 88.4669 497.926 74.4373 514.694 62.5675C523.367 56.4115 529.574 56.6835 537.617 63.6218C557.14 80.4403 573.125 100.201 585.165 122.954C588.362 128.991 590.215 129.331 595.232 124.774C647.711 77.2262 709.629 54.0137 780.321 54.0137C787.667 54.0137 795.03 54.7619 802.377 55.3061C812.971 56.1054 816.9 59.2854 819.467 69.6588C834.398 130.029 829.297 188.8 804.503 245.751C801.663 252.298 801.935 254.475 809.315 256.499C827.97 261.618 845.231 270.188 861.607 280.511C871.419 286.684 873.766 292.057 870.909 303.315C864.719 327.684 854.635 350.353 840.758 371.32C839.806 372.732 839.058 374.245 837.901 376.252ZM510.289 323.365C436.485 323.059 375.878 383.054 375.503 456.807C375.129 530.237 435.584 590.93 509.405 591.253C583.294 591.576 643.63 531.7 643.936 457.76C644.259 383.904 584.349 323.671 510.289 323.365ZM751.139 768.876C751.037 748.078 748.554 729.049 744.235 710.224C743.044 705.054 740.953 702.793 735.239 702.691C721.056 702.436 707.044 700.259 693.371 696.416C688.185 694.953 685.821 696.092 684.613 701.568C681.535 715.445 676.366 728.607 669.648 741.14C663.969 751.752 660.516 753.673 648.477 752.126C635.246 750.425 622.288 747.364 609.925 742.314C604.84 740.239 602.732 741.123 600.844 746.463C592.154 770.985 579.315 793.228 561.986 812.666C557.65 817.529 558.432 820.114 562.428 824.382C600.283 864.822 646.3 889.854 700.956 899.36C708.489 900.669 712.009 898.714 715.768 892.49C738.946 853.938 750.51 812.257 751.139 768.876ZM198.935 531.53C201.741 532.278 204.053 530.73 206.128 527.942C209.155 523.86 212.199 519.694 215.787 516.123C219.494 512.449 218.372 510.392 214.818 507.535C203.305 498.25 193.408 487.366 184.718 475.394C177.865 465.956 177.661 461.059 184.072 451.484C196.01 433.68 210.566 418.307 228.048 405.893C232.504 402.73 232.878 400.995 228.626 397.271C212.539 383.156 199.343 366.542 188.595 348.091C185.857 343.38 183.273 342.207 177.848 343.465C120.76 356.628 74.352 386.302 38.3002 432.438C34.9161 436.775 34.763 439.7 38.3682 444.002C53.01 461.467 69.4374 476.925 88.1945 489.883C121.44 512.841 158.104 526.7 198.935 531.53ZM798.296 133.021C797.938 120.999 796.612 106.408 794.214 91.834C793.16 85.3889 790.541 83.6884 784.317 83.5864C720.342 82.498 664.615 103.296 616.268 145.146C605.418 154.534 599.211 163.24 605.81 177.967C608.224 183.358 608.888 185.144 614.669 182.219C631.437 173.716 649.293 168.342 667.948 165.927C680.498 164.312 684.783 167.22 689.103 179.039C696.789 199.989 700.837 221.569 700.071 243.898C699.867 250.19 701.942 251.72 707.928 250.445C726.056 246.585 744.473 246.262 762.856 247.707C769.08 248.2 771.937 246.023 774.42 240.752C790.082 207.489 798.023 172.491 798.296 133.021ZM824.416 591.406C825.793 591.253 826.933 591.185 828.038 591.015C880.874 582.665 926.16 559.572 964.1 521.836C968.351 517.602 966.685 514.745 964.321 510.919C932.401 459.256 887.507 424.259 829.943 404.94C819.927 401.573 813.158 402.628 806.39 410.62C803.21 414.361 803.074 415.943 806.662 419.174C820.233 431.367 831.456 445.533 840.639 461.297C847.85 473.66 847.34 478.03 837.748 488.404C823.396 503.93 806.815 516.548 788.041 526.275C784.793 527.959 780.933 528.911 785.184 533.944C798.772 550.049 809.519 567.956 817.58 587.444C818.974 590.76 820.862 592.648 824.416 591.406ZM284.643 137.46C284.286 147.578 285.901 161.931 288.469 176.165C291.241 191.521 295.628 206.417 301.138 221.042C303.247 226.637 307.515 226.96 312.005 227.147C317.786 227.402 315.712 222.505 316.205 219.682C318.246 207.659 320.575 195.738 324.555 184.174C329.299 170.4 332.853 168.053 347.682 168.427C374.704 169.107 400.382 175.28 424.564 187.354C429.003 189.565 430.618 189.276 431.877 184.021C435.176 170.247 439.835 156.829 446.417 144.245C448.508 140.232 447.284 137.511 445.124 134.246C413.018 85.542 369.058 52.6362 313.569 34.8654C308.229 33.1478 305.662 34.1852 303.451 39.576C291.173 69.5568 284.609 100.626 284.643 137.46ZM237.248 762.771C237.401 790.286 241.84 816.951 250.802 842.884C252.23 847.034 253.778 849.568 259.049 849.108C313.28 844.364 360.879 824.263 401.896 788.416C405.62 785.168 405.79 782.651 403.682 778.365C399.94 770.781 396.692 762.89 393.971 754.864C392.152 749.524 389.856 747.942 384.125 749.388C371.473 752.602 358.498 753.554 345.421 753.945C335.557 754.235 329.673 750.068 325.405 741.48C316.392 723.335 309.726 704.493 307.073 684.376C306.342 678.849 304.556 676.485 298.468 677.641C285.884 680.022 273.079 680.328 260.376 679.257C253.863 678.696 251.55 681.298 249.713 686.961C241.721 711.636 237.571 736.923 237.248 762.771ZM334.248 655.738C334.52 677.488 338.635 697.283 346.288 716.465C348.669 722.417 351.9 724.254 358.362 723.846C413.97 720.342 468.813 678.866 487.706 626.166C490.087 619.533 486.839 619.261 482.383 618.479C440.975 611.218 407.253 590.93 381.183 558.092C377.238 553.127 375.299 553.178 371.32 557.871C347.121 586.492 335.013 619.517 334.248 655.738ZM508.997 651.776C508.266 653.034 507.841 653.715 507.466 654.429C488.692 690.94 460.803 718.149 423.816 735.885C419.446 737.977 419.735 740.29 421.044 743.878C433.798 779.148 454.8 808.363 484.628 831.236C488.131 833.922 490.716 834.008 494.372 831.746C532.907 807.904 559.827 774.794 574.74 731.923C576.186 727.774 575.812 725.41 571.918 722.825C545.848 705.599 525.918 682.794 511.531 655.092C511.072 654.208 510.289 653.443 508.997 651.776ZM369.551 373.99C368.14 371.524 367.868 370.708 367.324 370.147C338.244 340.336 321.29 304.676 316.171 263.42C315.644 259.169 313.637 257.74 309.845 257.009C270.613 249.357 232.708 253.336 196.078 269.542C191.673 271.498 191.452 274.032 192.422 278.249C202.047 320.321 223.525 354.978 256.686 382.561C260.189 385.486 263.029 385.877 267.331 384.143C286.36 376.456 306.155 372.001 326.748 371.252C340.591 370.759 354.348 371.779 369.551 373.99ZM839.738 304.71C840.18 300.968 836.915 300.254 834.585 299.013C792.922 276.803 749.047 271.056 702.962 281.327C697.555 282.534 695.14 285.119 693.711 290.51C686.331 318.365 672.488 342.768 653.357 364.28C651.555 366.304 647.32 367.8 649.752 371.762C651.674 374.892 654.939 373.31 657.557 372.953C697.844 367.409 735.919 374.109 771.512 393.836C776.069 396.37 778.824 395.774 782.565 392.526C801.459 376.201 816.525 356.917 827.817 334.724C832.698 325.167 836.881 315.236 839.738 304.71ZM745.408 673.526C763.009 673.373 780.321 671.315 797.343 666.367C803.074 664.7 804.911 662.421 804.4 656.401C800.727 613.701 784.317 576.713 755.646 544.998C752.891 541.954 750.306 540.679 746.088 541.699C716.329 548.892 686.637 548.195 657.081 540.39C654.973 539.828 652.49 538.417 650.925 540.883C649.395 543.298 651.657 545.083 652.966 546.818C677.828 579.791 690.446 616.864 690.004 658.221C689.953 663.425 691.773 665.721 696.738 666.996C712.724 671.128 728.913 673.39 745.408 673.526ZM457.691 204.768C456.671 208.373 459.528 209.819 461.603 211.587C486.005 232.47 503.674 257.978 514.66 288.18C515.357 290.102 515.221 293.282 518.282 293.095C520.663 292.959 520.663 290.17 521.224 288.435C531.955 255.887 550.559 228.678 576.713 206.622C579.706 204.105 580.471 201.639 579.876 197.83C573.635 158.598 556.476 124.91 529.149 96.1705C525.237 92.0551 522.976 93.3645 519.54 96.3575C494.015 118.618 475.564 145.606 464.578 177.678C461.534 186.521 459.086 195.517 457.691 204.768ZM344.434 245.326C345.08 280.664 357.596 314.403 382.867 343.346C385.979 346.9 387.832 348.295 391.982 343.958C415.79 319.13 444.648 303.23 478.523 296.768C483.999 295.714 485.597 294.098 482.944 288.503C457.674 235.14 415.347 205.737 357.205 198.238C352.648 197.643 350.539 199.258 349.485 203.731C346.509 216.451 344.383 229.256 344.434 245.326ZM703.694 517.296C743.606 516.548 777.872 503.266 807.206 477.129C811.424 473.371 812.07 470.633 808.635 465.973C799.503 453.593 789.402 442.166 777.141 432.846C745.68 408.92 710.326 397.866 670.703 401.199C666.621 401.539 663.833 401.777 665.652 407.576C675.958 440.346 675.975 473.286 665.924 506.157C664.7 510.188 665.142 512.075 669.852 513.164C681.28 515.749 692.776 516.786 703.694 517.296ZM330.66 520.646C337.122 520.238 343.601 519.83 350.097 519.422C355.811 519.065 357.699 517.364 355.437 510.919C343.771 477.622 342.921 443.832 353.311 410.093C355.454 403.121 353.889 401.352 347.189 400.961C293.639 397.883 250.019 417.303 215.702 458.287C212.607 461.994 213.457 464.443 216.314 467.674C246.771 501.906 284.966 519.303 330.66 520.646ZM660.874 658.153C660.363 626.761 652.201 598.651 635.382 573.125C632.934 569.401 631.25 566.952 626.692 571.629C601.592 597.392 570.999 612.884 535.594 618.802C530.441 619.669 528.876 620.843 531.087 626.234C551.341 675.89 587.427 707.146 639.294 720.512C644.939 721.975 647.218 720.342 649.293 715.173C656.741 696.535 660.465 677.233 660.874 658.153ZM269.763 650.416C279.966 650.229 290.084 649.276 300.186 647.678C304.012 647.082 305.304 645.348 305.611 641.607C308.229 610.504 318.178 581.934 335.659 556.052C338.567 551.732 338.618 549.76 332.513 549.862C303.366 550.338 275.8 543.604 249.815 530.577C246.057 528.69 243.829 529.064 241.091 532.091C216.399 559.504 200.55 591.168 194.292 627.645C193.425 632.662 194.989 634.685 199.377 636.454C221.96 645.569 245.445 650.007 269.763 650.416ZM671.009 243.149C670.873 229.647 668.883 217.131 666.264 204.632C664.955 198.357 662.659 196.248 656.027 198.153C606.286 212.403 571.305 242.996 551.664 291.037C549.436 296.479 550.116 298.69 556.204 300.458C582.495 308.06 605.487 321.63 624.839 341.017C628.852 345.047 630.927 345.047 634.6 340.659C658.408 312.192 670.193 279.371 671.009 243.149Z" fill="url(#paint0_linear_109_179)" stroke="url(#paint1_linear_109_179)" stroke-width="0.5"/>
<defs>
<linearGradient id="paint0_linear_109_179" x1="501" y1="1" x2="501" y2="930.754" gradientUnits="userSpaceOnUse">
<stop stop-color="#A51FF0"/>
<stop offset="1" stop-color="#20D4F6"/>
</linearGradient>
<linearGradient id="paint1_linear_109_179" x1="501" y1="1" x2="501" y2="930.754" gradientUnits="userSpaceOnUse">
<stop stop-color="#A51FF0"/>
<stop offset="1" stop-color="#20D4F6"/>
</linearGradient>
</defs>
</svg>
