<svg width="40" height="38" viewBox="0 0 40 38" fill="none" xmlns="http://www.w3.org/2000/svg">
<path d="M33.1602 15.4942C33.7322 15.7021 34.2908 15.9081 34.8216 16.1804C36.8005 17.1961 38.3144 18.6861 39.3666 20.6444C39.609 21.0954 39.5931 21.2549 39.2563 21.6249C37.5976 23.449 35.5523 24.5756 33.1223 24.9901C32.8653 25.0339 32.7982 25.1004 32.8626 25.3681C32.9868 25.8849 33.0254 26.4163 33.0247 26.9491C33.024 27.4406 32.9363 27.5702 32.4846 27.7389C31.9751 27.9295 31.453 28.075 30.9156 28.1481C30.6738 28.1813 30.618 28.2444 30.6712 28.5008C31.2757 31.4515 30.7555 34.189 29.0928 36.7093C28.853 37.0727 28.5687 37.1962 28.1456 37.1424C25.5549 36.8096 23.3554 35.7129 21.5732 33.7998C21.4064 33.6204 21.3055 33.5772 21.1009 33.7519C20.7395 34.0615 20.321 34.2927 19.9032 34.5218C19.6076 34.6839 19.3445 34.668 19.0662 34.4793C18.3189 33.9705 17.6553 33.372 17.1099 32.6519C16.9651 32.4606 16.886 32.4652 16.71 32.6134C14.8055 34.2169 12.6028 35.0486 10.1157 35.1343C9.67262 35.1496 9.5019 35.0453 9.33383 34.6228C8.40251 32.2872 8.2949 29.9117 9.02627 27.5077C9.11994 27.2008 9.04952 27.1178 8.76455 27.0513C8.23578 26.9285 7.73226 26.7252 7.24534 26.4841C6.85674 26.2921 6.75842 26.12 6.80426 25.6916C6.90656 24.7383 7.13839 23.819 7.56021 22.9554C7.6738 22.7236 7.65188 22.6478 7.38218 22.5987C4.61213 22.0912 2.39211 20.6915 0.706171 18.441C0.391967 18.0218 0.391303 17.8644 0.694214 17.4279C2.19349 15.269 4.21423 13.8488 6.75842 13.1885C7.07728 13.1055 7.17626 13.0198 7.03941 12.691C6.86604 12.2725 6.78433 11.8221 6.72322 11.3717C6.65413 10.8602 6.72122 10.7273 7.16828 10.4929C8.26235 9.91958 9.42683 9.59542 10.6611 9.54692C10.9407 9.5363 10.9832 9.47518 10.8989 9.20681C10.0659 6.557 10.2505 3.9703 11.421 1.45334C11.7193 0.811646 11.8594 0.743225 12.5284 0.919924C14.9477 1.55697 16.9179 2.86826 18.4139 4.87637C18.57 5.08562 18.643 5.13544 18.8224 4.89497C19.302 4.25261 19.8799 3.70458 20.5349 3.24092C20.8737 3.00045 21.1162 3.01108 21.4304 3.2821C22.193 3.93907 22.8174 4.71097 23.2877 5.59977C23.4126 5.83559 23.485 5.84888 23.6809 5.67085C25.7309 3.81352 28.1496 2.90678 30.911 2.90678C31.1979 2.90678 31.4856 2.93601 31.7725 2.95727C32.1864 2.98849 32.3398 3.11271 32.4401 3.51792C33.0234 5.87611 32.8241 8.17186 31.8556 10.3965C31.7446 10.6523 31.7553 10.7373 32.0436 10.8164C32.7723 11.0163 33.4465 11.3511 34.0862 11.7543C34.4695 11.9955 34.5612 12.2054 34.4496 12.6451C34.2078 13.597 33.8139 14.4825 33.2718 15.3016C33.2346 15.3567 33.2054 15.4158 33.1602 15.4942ZM20.3629 13.4283C17.4799 13.4164 15.1124 15.7599 15.0978 18.6409C15.0832 21.5093 17.4447 23.8801 20.3283 23.8927C23.2146 23.9053 25.5715 21.5664 25.5834 18.6781C25.5961 15.7931 23.2558 13.4403 20.3629 13.4283ZM29.7711 30.8311C29.7671 30.0187 29.6701 29.2754 29.5014 28.54C29.4549 28.3381 29.3732 28.2497 29.15 28.2457C28.5959 28.2358 28.0486 28.1507 27.5145 28.0006C27.3119 27.9435 27.2196 27.988 27.1724 28.2019C27.0522 28.7439 26.8502 29.2581 26.5878 29.7477C26.366 30.1622 26.2311 30.2372 25.7608 30.1768C25.244 30.1104 24.7378 29.9908 24.2549 29.7935C24.0563 29.7125 23.9739 29.747 23.9002 29.9556C23.5607 30.9135 23.0592 31.7824 22.3823 32.5416C22.2129 32.7316 22.2434 32.8326 22.3995 32.9993C23.8782 34.579 25.6758 35.5568 27.8108 35.9281C28.105 35.9793 28.2425 35.9029 28.3894 35.6598C29.2948 34.1538 29.7465 32.5257 29.7711 30.8311ZM8.20057 21.5598C8.31018 21.589 8.40052 21.5285 8.48156 21.4196C8.5998 21.2602 8.71871 21.0974 8.85887 20.9579C9.00369 20.8144 8.95985 20.7341 8.82101 20.6225C8.37129 20.2598 7.98468 19.8346 7.64524 19.367C7.37753 18.9983 7.36956 18.807 7.61999 18.433C8.08632 17.7375 8.65494 17.137 9.33782 16.6521C9.51186 16.5285 9.52648 16.4607 9.36041 16.3153C8.732 15.7639 8.21651 15.1149 7.79669 14.3942C7.68974 14.2102 7.58877 14.1643 7.37686 14.2135C5.14688 14.7276 3.33406 15.8868 1.92579 17.689C1.7936 17.8584 1.78762 17.9726 1.92844 18.1407C2.50039 18.8229 3.14208 19.4268 3.87479 19.9329C5.17345 20.8297 6.60564 21.3711 8.20057 21.5598ZM31.6131 5.99303C31.5992 5.52338 31.5473 4.95343 31.4537 4.38414C31.4125 4.13238 31.3102 4.06595 31.0671 4.06197C28.568 4.01945 26.3912 4.83187 24.5027 6.46666C24.0788 6.83334 23.8364 7.17345 24.0941 7.74872C24.1885 7.9593 24.2144 8.02904 24.4402 7.91479C25.0952 7.58265 25.7927 7.37274 26.5214 7.27841C27.0116 7.2153 27.179 7.32889 27.3478 7.79057C27.648 8.60896 27.8061 9.45193 27.7762 10.3241C27.7683 10.5699 27.8493 10.6297 28.0831 10.5799C28.7912 10.4291 29.5107 10.4165 30.2287 10.4729C30.4719 10.4922 30.5835 10.4072 30.6805 10.2012C31.2923 8.90191 31.6025 7.53482 31.6131 5.99303ZM32.6334 23.8987C32.6872 23.8927 32.7318 23.89 32.7749 23.8834C34.8388 23.5572 36.6078 22.6551 38.0898 21.1811C38.2559 21.0157 38.1908 20.9041 38.0985 20.7546C36.8516 18.7366 35.0979 17.3695 32.8493 16.6149C32.4581 16.4833 32.1937 16.5245 31.9293 16.8367C31.8051 16.9829 31.7998 17.0446 31.9399 17.1709C32.47 17.6471 32.9084 18.2005 33.2672 18.8163C33.5488 19.2992 33.5289 19.4699 33.1542 19.8751C32.5936 20.4816 31.9459 20.9745 31.2125 21.3545C31.0857 21.4203 30.9349 21.4575 31.1009 21.6541C31.6317 22.2832 32.0515 22.9826 32.3664 23.7439C32.4209 23.8734 32.4946 23.9472 32.6334 23.8987ZM11.5485 6.1664C11.5346 6.56165 11.5977 7.1223 11.698 7.67831C11.8063 8.27815 11.9777 8.86006 12.1929 9.43134C12.2753 9.64988 12.442 9.66251 12.6174 9.66981C12.8432 9.67978 12.7622 9.48847 12.7814 9.37819C12.8612 8.90855 12.9522 8.44289 13.1076 7.99118C13.2929 7.45311 13.4318 7.36144 14.011 7.37606C15.0666 7.40263 16.0696 7.64376 17.0142 8.1154C17.1876 8.20175 17.2507 8.19046 17.2999 7.9852C17.4287 7.44714 17.6108 6.92302 17.8678 6.43145C17.9495 6.27468 17.9017 6.1684 17.8173 6.04085C16.5632 4.13836 14.846 2.85298 12.6785 2.1588C12.4699 2.09171 12.3696 2.13223 12.2832 2.34281C11.8036 3.51394 11.5472 4.72757 11.5485 6.1664ZM9.6972 30.5926C9.70318 31.6674 9.87655 32.709 10.2266 33.722C10.2824 33.8841 10.3429 33.9831 10.5488 33.9652C12.6672 33.7798 14.5265 32.9947 16.1287 31.5944C16.2742 31.4675 16.2809 31.3692 16.1985 31.2018C16.0524 30.9055 15.9255 30.5973 15.8192 30.2837C15.7481 30.0752 15.6584 30.0134 15.4346 30.0698C14.9404 30.1954 14.4335 30.2326 13.9227 30.2479C13.5374 30.2592 13.3076 30.0964 13.1408 29.7609C12.7888 29.0522 12.5284 28.3161 12.4247 27.5303C12.3962 27.3144 12.3264 27.2221 12.0886 27.2672C11.597 27.3602 11.0968 27.3722 10.6006 27.3303C10.3462 27.3084 10.2559 27.4101 10.1841 27.6313C9.8719 28.5951 9.70982 29.5829 9.6972 30.5926ZM13.4862 26.4117C13.4969 27.2613 13.6576 28.0345 13.9566 28.7838C14.0496 29.0163 14.1758 29.088 14.4282 29.0721C16.6004 28.9352 18.7427 27.3151 19.4807 25.2565C19.5737 24.9974 19.4468 24.9868 19.2728 24.9562C17.6553 24.6726 16.338 23.8801 15.3197 22.5974C15.1655 22.4034 15.0898 22.4054 14.9344 22.5887C13.9891 23.7067 13.5161 24.9967 13.4862 26.4117ZM20.3124 26.2569C20.2838 26.306 20.2672 26.3326 20.2526 26.3605C19.5192 27.7867 18.4298 28.8496 16.985 29.5424C16.8143 29.6241 16.8256 29.7144 16.8767 29.8546C17.3749 31.2323 18.1953 32.3736 19.3605 33.267C19.4973 33.372 19.5983 33.3753 19.7411 33.2869C21.2464 32.3556 22.2979 31.0623 22.8805 29.3876C22.9369 29.2255 22.9223 29.1332 22.7702 29.0322C21.7519 28.3593 20.9733 27.4685 20.4114 26.3864C20.3934 26.3519 20.3629 26.322 20.3124 26.2569ZM14.8653 15.4059C14.8102 15.3095 14.7995 15.2777 14.7783 15.2557C13.6424 14.0913 12.9801 12.6983 12.7801 11.0867C12.7595 10.9207 12.6811 10.8649 12.533 10.8363C11.0005 10.5374 9.51983 10.6928 8.08897 11.3259C7.91693 11.4023 7.90829 11.5012 7.94615 11.666C8.32214 13.3094 9.16112 14.6632 10.4565 15.7407C10.5933 15.8549 10.7042 15.8702 10.8723 15.8024C11.6156 15.5022 12.3889 15.3281 13.1933 15.2989C13.734 15.2797 14.2714 15.3195 14.8653 15.4059ZM33.232 12.6996C33.2492 12.5535 33.1217 12.5256 33.0307 12.4771C31.4032 11.6095 29.6894 11.385 27.8892 11.7862C27.6779 11.8334 27.5836 11.9343 27.5278 12.1449C27.2395 13.233 26.6988 14.1863 25.9514 15.0266C25.881 15.1056 25.7156 15.1641 25.8106 15.3188C25.8857 15.4411 26.0132 15.3793 26.1155 15.3653C27.6892 15.1488 29.1765 15.4105 30.5669 16.1811C30.7449 16.2801 30.8525 16.2568 30.9986 16.1299C31.7367 15.4922 32.3252 14.7389 32.7663 13.872C32.9569 13.4987 33.1204 13.1108 33.232 12.6996ZM29.5472 27.1065C30.2347 27.1005 30.911 27.0201 31.5759 26.8268C31.7998 26.7617 31.8715 26.6727 31.8516 26.4376C31.7081 24.7696 31.0671 23.3247 29.9471 22.0859C29.8395 21.967 29.7385 21.9171 29.5738 21.957C28.4113 22.238 27.2514 22.2107 26.0969 21.9058C26.0146 21.8839 25.9176 21.8288 25.8565 21.9251C25.7967 22.0194 25.885 22.0892 25.9362 22.1569C26.9073 23.445 27.4002 24.8931 27.383 26.5086C27.381 26.7119 27.4521 26.8016 27.646 26.8514C28.2704 27.0128 28.9028 27.1012 29.5472 27.1065ZM18.3082 8.79562C18.2684 8.93645 18.38 8.99291 18.461 9.062C19.4143 9.87773 20.1045 10.8742 20.5336 12.0539C20.5608 12.129 20.5555 12.2532 20.6751 12.2459C20.7681 12.2406 20.7681 12.1316 20.79 12.0639C21.2092 10.7924 21.9359 9.7296 22.9575 8.86803C23.0745 8.76971 23.1043 8.6734 23.0811 8.5246C22.8373 6.9921 22.167 5.67617 21.0996 4.55353C20.9468 4.39278 20.8584 4.44393 20.7242 4.56084C19.7272 5.43038 19.0064 6.48459 18.5773 7.73742C18.4584 8.08285 18.3627 8.43426 18.3082 8.79562ZM13.8841 10.3799C13.9094 11.7603 14.3983 13.0782 15.3854 14.2088C15.507 14.3477 15.5794 14.4021 15.7415 14.2328C16.6715 13.2629 17.7987 12.6418 19.122 12.3894C19.3359 12.3482 19.3983 12.2851 19.2947 12.0665C18.3076 9.98203 16.6542 8.83349 14.383 8.54054C14.205 8.51729 14.1226 8.58039 14.0814 8.7551C13.9652 9.25198 13.8822 9.75219 13.8841 10.3799ZM27.9177 21.0038C29.4768 20.9745 30.8153 20.4557 31.9612 19.4347C32.1259 19.2879 32.1512 19.181 32.017 18.999C31.6603 18.5154 31.2657 18.069 30.7867 17.7049C29.5578 16.7703 28.1768 16.3385 26.629 16.4687C26.4696 16.482 26.3606 16.4913 26.4317 16.7178C26.8343 17.9979 26.8349 19.2846 26.4424 20.5686C26.3945 20.7261 26.4118 20.7998 26.5958 20.8423C27.0422 20.9433 27.4913 20.9838 27.9177 21.0038ZM13.3461 21.1346C13.5985 21.1187 13.8516 21.1027 14.1054 21.0868C14.3286 21.0728 14.4023 21.0064 14.3139 20.7546C13.8582 19.454 13.825 18.1341 14.2309 16.8161C14.3146 16.5438 14.2535 16.4747 13.9918 16.4594C11.8999 16.3392 10.1961 17.0978 8.85555 18.6987C8.73465 18.8435 8.76787 18.9392 8.87946 19.0654C10.0692 20.4026 11.5612 21.0821 13.3461 21.1346ZM26.2451 26.506C26.2251 25.2797 25.9063 24.1817 25.2493 23.1846C25.1537 23.0391 25.0879 22.9434 24.9099 23.1261C23.9294 24.1325 22.7343 24.7377 21.3513 24.9688C21.15 25.0027 21.0889 25.0485 21.1753 25.2591C21.9664 27.1988 23.376 28.4198 25.4021 28.9419C25.6226 28.999 25.7116 28.9352 25.7927 28.7333C26.0836 28.0053 26.2291 27.2513 26.2451 26.506ZM10.9673 26.2037C11.3659 26.1964 11.7611 26.1592 12.1557 26.0968C12.3052 26.0735 12.3556 26.0058 12.3676 25.8596C12.4699 24.6447 12.8585 23.5287 13.5414 22.5176C13.655 22.3489 13.657 22.2719 13.4185 22.2758C12.2799 22.2944 11.2031 22.0314 10.1881 21.5226C10.0413 21.4488 9.95427 21.4634 9.84732 21.5817C8.88279 22.6525 8.26368 23.8894 8.01923 25.3143C7.98535 25.5102 8.04646 25.5893 8.21785 25.6584C9.10001 26.0144 10.0174 26.1878 10.9673 26.2037ZM26.641 10.2949C26.6357 9.76746 26.5579 9.27855 26.4556 8.79031C26.4045 8.54519 26.3148 8.46282 26.0557 8.53722C24.1127 9.09388 22.7463 10.2889 21.9791 12.1655C21.892 12.3781 21.9186 12.4644 22.1564 12.5335C23.1834 12.8305 24.0815 13.3606 24.8375 14.1178C24.9942 14.2753 25.0753 14.2753 25.2187 14.1039C26.1487 12.9919 26.6091 11.7098 26.641 10.2949Z" fill="url(#paint0_linear_108_171)" stroke="url(#paint1_linear_108_171)" stroke-width="0.5"/>
<defs>
<linearGradient id="paint0_linear_108_171" x1="20" y1="0.835937" x2="20" y2="37.1545" gradientUnits="userSpaceOnUse">
<stop stop-color="#A51FF0"/>
<stop offset="1" stop-color="#20D4F6"/>
</linearGradient>
<linearGradient id="paint1_linear_108_171" x1="20" y1="0.835937" x2="20" y2="37.1545" gradientUnits="userSpaceOnUse">
<stop stop-color="#A51FF0"/>
<stop offset="1" stop-color="#20D4F6"/>
</linearGradient>
</defs>
</svg>
